<?xml version="1.0" encoding="iso-8859-1"?>
<!-- Generator: Adobe Illustrator 19.0.0, SVG Export Plug-In . SVG Version: 6.00 Build 0)  -->
<svg version="1.1" id="Capa_1" xmlns="http://www.w3.org/2000/svg" xmlns:xlink="http://www.w3.org/1999/xlink" x="0px" y="0px"
	 viewBox="0 0 511.999 511.999" style="enable-background:new 0 0 511.999 511.999;" xml:space="preserve">
<polygon style="fill:#EFEFEF;" points="444.458,487.641 283.628,326.811 326.795,283.633 487.635,444.474 504.706,504.713 "/>
<path style="fill:#FF4F4F;" d="M193.137,417.711c-38.826-38.825-38.935-102.104-0.241-141.059l83.747-83.747
	c18.846-18.72,43.854-29.028,70.418-29.028c26.691,0,51.783,10.393,70.655,29.266l2.677,2.7l-92.147,92.146l-38.833,38.824
	l-1.43,1.45l-92.152,92.143L193.137,417.711z"/>
<path style="fill:#CC3F3F;" d="M109.823,196.473l86.644-86.644l84.531,84.531l-84.958,84.945c-0.05,0.05-0.102,0.1-0.146,0.15
	l-1.445,1.647L109.823,196.473z"/>
<polygon style="fill:#FF4F4F;" points="204.74,5.002 198.472,113.632 113.626,198.478 5.007,204.747 "/>
<path d="M262.559,267.328l-53.282,53.282c-4.009,4.009-4.009,10.509,0,14.519c2.005,2.005,4.632,3.007,7.259,3.007
	c2.627,0,5.254-1.002,7.259-3.007l53.282-53.282c4.009-4.009,4.009-10.509,0-14.519C273.068,263.319,266.57,263.319,262.559,267.328
	z"/>
<path d="M288.845,265.827c13.211,0,13.233-20.532,0-20.532C275.634,245.295,275.612,265.827,288.845,265.827z"/>
<path d="M10.268,212.652c0.197,0,0.396-0.005,0.594-0.017l97.859-5.648l71.482,71.483c-34.848,42.42-32.452,105.472,7.125,145.047
	l1.242,1.242c1.925,1.925,4.537,3.008,7.259,3.008c0,0,0,0,0.001,0c2.723,0,5.333-1.081,7.258-3.007l83.436-83.436L438.272,493.07
	c1.239,1.239,2.775,2.139,4.461,2.618l56.196,15.923c0.924,0.262,1.864,0.389,2.799,0.389c2.686,0,5.309-1.055,7.26-3.007
	c2.631-2.631,3.632-6.479,2.618-10.058l-15.923-56.186c-0.477-1.686-1.379-3.221-2.618-4.461L341.313,286.537l83.442-83.442
	c3.998-3.998,4.01-10.476,0.029-14.49l-1.262-1.272c-39.581-39.579-102.637-41.975-145.06-7.125l-71.482-71.482l5.647-97.87
	c0.245-4.253-2.161-8.216-6.049-9.959c-3.888-1.743-8.448-0.903-11.46,2.109L3.012,195.128c-3.013,3.013-3.851,7.572-2.109,11.46
	C2.565,210.293,6.244,212.652,10.268,212.652z M196.467,127.251l67.106,67.106l-69.226,69.218l-67.102-67.103L196.467,127.251z
	 M476.658,450.918l10.181,35.927l-35.937-10.182L301.044,326.807l25.75-25.75L476.658,450.918z M402.693,196.119l-83.08,83.087
	c-0.025,0.025-0.052,0.045-0.077,0.07l-40.273,40.264c-0.07,0.07-0.129,0.146-0.197,0.218l-82.944,82.935
	c-28.2-34.267-26.386-85.234,5.504-117.349l83.481-83.482l0.229-0.228C317.462,169.733,368.447,167.928,402.693,196.119z
	 M190.578,36.588l-4.135,71.649l-78.212,78.212l-71.64,4.135L190.578,36.588z"/>
<g>
</g>
<g>
</g>
<g>
</g>
<g>
</g>
<g>
</g>
<g>
</g>
<g>
</g>
<g>
</g>
<g>
</g>
<g>
</g>
<g>
</g>
<g>
</g>
<g>
</g>
<g>
</g>
<g>
</g>
</svg>
